<?xml version="1.0" encoding="utf-8"?>
<!-- Generator: Adobe Illustrator 20.0.0, SVG Export Plug-In . SVG Version: 6.00 Build 0)  -->
<svg version="1.1" id="Layer_1" xmlns="http://www.w3.org/2000/svg" xmlns:xlink="http://www.w3.org/1999/xlink" x="0px" y="0px"
	 viewBox="0 0 512 512" style="enable-background:new 0 0 512 512;" xml:space="preserve">
<style type="text/css">
	.st0{fill:#CAEEC5;}
	.st1{fill:#DDC98B;}
	.st2{fill:#BC9A5E;}
	.st3{fill:#97BAA8;}
	.st4{fill:#5B5B5B;}
	.st5{fill:#FF4328;}
	.st6{fill:#C13421;}
	.st7{fill:#9E9E9E;}
	.st8{fill:#7F7F7F;}
</style>
<g>
	<path class="st0" d="M450.9,178.3V248c0,114.9-95.7,208.9-212.6,208.9l0,0c-116.9,0-212.6-94-212.6-208.9v-69.6L450.9,178.3
		L450.9,178.3z"/>
	<path class="st1" d="M450.9,244.9v3.1c0,114.9-95.7,208.9-212.6,208.9s-212.6-94-212.6-208.9v-3.1H450.9z"/>
	<path class="st2" d="M440.7,311.7c-27.6,84-108.1,145.2-202.5,145.2S63.4,395.6,35.8,311.7H440.7z"/>
	<path class="st3" d="M450.9,178.3V248c0,114.9-95.7,208.9-212.6,208.9S25.6,362.8,25.6,248v-69.6h33.5V248
		c0,96.8,80.3,175.5,179.1,175.5S417.3,344.7,417.3,248v-69.6L450.9,178.3L450.9,178.3z"/>
	<path class="st4" d="M426.8,98.9L312,256.5c-2.9,3.9-8.4,4.9-12.4,2.1c0,0-0.1-0.1-0.1-0.1c-4-2.9-4.9-8.5-2-12.4L412.3,88.5
		c2.9-4,8.5-4.9,12.5-2C428.8,89.4,429.7,94.9,426.8,98.9z"/>
	<path class="st5" d="M415.5,50.7l10.3-13.9L444.2,12c9.7-13,28.4-15.9,41.7-6.4l0,0c13.3,9.5,16.2,27.9,6.6,40.9L474,71.3
		l-10.3,13.9L445.3,110c-9.7,13-28.4,15.9-41.7,6.4l0,0c-13.3-9.5-16.2-27.9-6.6-40.9L415.5,50.7L415.5,50.7z"/>
	<path class="st6" d="M403.6,116.4c-13.2-9.5-16.1-27.9-6.5-40.9l18.4-24.8l10.3-13.9L444.2,12c8.9-12.1,25.7-15.4,38.7-8.3
		L403.6,116.4z"/>
	<path class="st7" d="M291.7,202.1l63.4,45.3L324,347.7c-11.9,38.3-70.6,39.6-103.6,16l0,0c-33-23.6-49.8-78.9-16.3-101.7
		L291.7,202.1L291.7,202.1z"/>
	<path class="st8" d="M303.4,270.2l-17.2,55.4c-1.5,4.7-6.5,7.3-11.2,5.9c-0.9-0.3-1.8-0.7-2.5-1.2c-3.1-2.2-4.6-6.1-3.4-9.9
		l17.2-55.4c1.5-4.7,6.5-7.3,11.2-5.9C302.2,260.6,304.9,265.5,303.4,270.2z M241.3,285c-4.7-1.4-9.7,1.2-11.2,5.9l-3.9,12.5
		c-1.2,3.8,0.3,7.8,3.4,9.9c0.7,0.5,1.6,0.9,2.5,1.2c4.7,1.4,9.7-1.2,11.2-5.9l3.9-12.5C248.7,291.5,246,286.5,241.3,285z"/>
</g>
</svg>
