<?xml version="1.0" encoding="utf-8"?>
<!-- Generator: Adobe Illustrator 19.2.1, SVG Export Plug-In . SVG Version: 6.00 Build 0)  -->
<svg version="1.1" id="Layer_1" xmlns="http://www.w3.org/2000/svg" xmlns:xlink="http://www.w3.org/1999/xlink" x="0px" y="0px"
	 viewBox="0 0 635 617" style="enable-background:new 0 0 635 617;" xml:space="preserve">
<style type="text/css">
	.st0{fill:#CAEEC5;}
	.st1{fill:#DDC98B;}
	.st2{fill:#BC9A5E;}
	.st3{fill:#97BAA8;}
	.st4{fill:#5B5B5B;}
	.st5{fill:#FF4328;}
	.st6{fill:#C13421;}
	.st7{fill:#9E9E9E;}
	.st8{fill:#7F7F7F;}
	.st9{fill:#769B87;}
	.st10{font-family:'Lato-Regular';}
	.st11{font-size:82px;}
</style>
<g>
	<path class="st0" d="M535.9,178.3V248c0,114.9-95.7,208.9-212.6,208.9l0,0c-116.9,0-212.6-94-212.6-208.9v-69.6L535.9,178.3
		L535.9,178.3z"/>
	<path class="st1" d="M535.9,244.9v3.1c0,114.9-95.7,208.9-212.6,208.9s-212.6-94-212.6-208.9v-3.1H535.9z"/>
	<path class="st2" d="M525.7,311.7c-27.6,84-108.1,145.2-202.5,145.2s-174.8-61.3-202.4-145.2H525.7z"/>
	<path class="st3" d="M535.9,178.3V248c0,114.9-95.7,208.9-212.6,208.9S110.6,362.8,110.6,248v-69.6h33.5V248
		c0,96.8,80.3,175.5,179.1,175.5S502.3,344.7,502.3,248v-69.6L535.9,178.3L535.9,178.3z"/>
	<path class="st4" d="M511.8,98.9L397,256.5c-2.9,3.9-8.4,4.9-12.4,2.1l-0.1-0.1c-4-2.9-4.9-8.5-2-12.4L497.3,88.5
		c2.9-4,8.5-4.9,12.5-2S514.7,94.9,511.8,98.9z"/>
	<path class="st5" d="M500.5,50.7l10.3-13.9L529.2,12c9.7-13,28.4-15.9,41.7-6.4l0,0c13.3,9.5,16.2,27.9,6.6,40.9L559,71.3
		l-10.3,13.9L530.3,110c-9.7,13-28.4,15.9-41.7,6.4l0,0c-13.3-9.5-16.2-27.9-6.6-40.9L500.5,50.7L500.5,50.7z"/>
	<path class="st6" d="M488.6,116.4c-13.2-9.5-16.1-27.9-6.5-40.9l18.4-24.8l10.3-13.9L529.2,12c8.9-12.1,25.7-15.4,38.7-8.3
		L488.6,116.4z"/>
	<path class="st7" d="M376.7,202.1l63.4,45.3L409,347.7c-11.9,38.3-70.6,39.6-103.6,16l0,0c-33-23.6-49.8-78.9-16.3-101.7
		L376.7,202.1L376.7,202.1z"/>
	<path class="st8" d="M388.4,270.2l-17.2,55.4c-1.5,4.7-6.5,7.3-11.2,5.9c-0.9-0.3-1.8-0.7-2.5-1.2c-3.1-2.2-4.6-6.1-3.4-9.9
		l17.2-55.4c1.5-4.7,6.5-7.3,11.2-5.9C387.2,260.6,389.9,265.5,388.4,270.2z M326.3,285c-4.7-1.4-9.7,1.2-11.2,5.9l-3.9,12.5
		c-1.2,3.8,0.3,7.8,3.4,9.9c0.7,0.5,1.6,0.9,2.5,1.2c4.7,1.4,9.7-1.2,11.2-5.9l3.9-12.5C333.7,291.5,331,286.5,326.3,285z"/>
</g>
<text transform="matrix(1 0 0 1 62.9999 527.5004)" class="st9 st10 st11">Chinese  soups</text>
</svg>
